<svg id="visual" viewBox="0 0 900 600" width="900" height="600" xmlns="http://www.w3.org/2000/svg" xmlns:xlink="http://www.w3.org/1999/xlink" version="1.1"><rect x="0" y="0" width="900" height="600" fill="#1E2A3A"></rect><path d="M0 474L21.5 483.8C43 493.7 86 513.3 128.8 518C171.7 522.7 214.3 512.3 257.2 497.5C300 482.7 343 463.3 385.8 458.8C428.7 454.3 471.3 464.7 514.2 480.5C557 496.3 600 517.7 642.8 515.5C685.7 513.3 728.3 487.7 771.2 482.5C814 477.3 857 492.7 878.5 500.3L900 508L900 601L878.5 601C857 601 814 601 771.2 601C728.3 601 685.7 601 642.8 601C600 601 557 601 514.2 601C471.3 601 428.7 601 385.8 601C343 601 300 601 257.2 601C214.3 601 171.7 601 128.8 601C86 601 43 601 21.5 601L0 601Z" fill="#379E55" stroke-linecap="round" stroke-linejoin="miter"></path></svg>