<svg xmlns="http://www.w3.org/2000/svg" viewBox="0 0 512 512" width="32" height="32">
  <path fill="#263B74" d="M6.325,505.318c-8.434-8.434-8.434-22.107,0-30.54l33.595-33.595c8.434-8.434,22.107-8.434,30.54,0 c8.434,8.434,8.434,22.107,0,30.54l-33.594,33.595C28.433,513.752,14.759,513.752,6.325,505.318z"/>
  <path fill="#F66131" d="M158.38,415.142c-8.175-8.608-21.892-9.008-30.552-0.806l-0.449,0.426l-29.494-29.494l0.426-0.449 c8.202-8.661,7.854-22.322-0.819-30.542c-8.66-8.202-22.322-7.835-30.523,0.824l-25.765,27.202 c-20.313,21.404-19.96,54.596,0.907,75.463l12.769,12.769c20.865,20.866,54.061,21.217,75.452,0.919l27.177-25.742 C166.169,437.51,166.582,423.801,158.38,415.142z"/>
  <path fill="#C6C6C6" d="M505.443,98.538L413.821,6.916c-8.434-8.434-22.396-8.86-30.83-0.426L51.781,337.702 c-8.434,8.434-8.288,22.321,0.144,30.753c1.13,1.13,2.733,2.09,3.794,3.15l83.355,83.355c1.559,1.559,2.259,3.847,4.001,5.587 c8.434,8.434,21.963,8.221,30.396-0.213l331.684-331.684C513.589,120.219,513.877,106.971,505.443,98.538z"/>
  <path fill="#F66131" d="M505.675,98.304L414.053,6.682c-8.434-8.434-22.107-8.434-30.54,0L145.298,244.898L267.46,367.06 l238.215-238.216C514.108,120.41,514.108,106.736,505.675,98.304z"/>
</svg>
